<svg xmlns="http://www.w3.org/2000/svg" width="180" height="37" fill="none"><path fill="#263238" d="M46.552 20.06c0 2.75.842 4.954 2.524 6.617 1.684 1.66 3.959 2.492 6.829 2.492 2.87 0 4.8-.702 6.236-2.105 1.434-1.414 2.152-3.053 2.152-4.916v-.17H60.14v.152c0 .751-.328 1.398-.982 1.936-.656.539-1.751.809-3.288.809-1.727 0-2.994-.422-3.796-1.264-.801-.841-1.203-1.964-1.203-3.367v-.91c0-1.402.407-2.525 1.221-3.366.814-.842 2.073-1.264 3.778-1.264 1.491 0 2.575.258 3.254.774.69.516 1.033 1.168 1.033 1.954v.169h4.153l-.018-.22c-.069-1.875-.802-3.501-2.203-4.883-1.402-1.393-3.463-2.088-6.185-2.088-2.87 0-5.147.831-6.83 2.492-1.683 1.65-2.523 3.855-2.523 6.617v.541ZM67.785 28.664h4.237v-8.746c0-1.915.926-2.905 1.694-3.445.768-.55 1.644-.824 2.626-.824.305 0 .582.017.83.05.26.033.503.073.728.119v-5.152a3.736 3.736 0 0 0-.593-.151 3.952 3.952 0 0 0-.797-.084c-1.005 0-1.903.27-2.694.809a6.285 6.285 0 0 0-1.724 1.714c-.046.068-.153.04-.158-.041l-.37-1.994h-3.78v17.745h.001ZM79.63 20.06c0 2.75.876 4.954 2.627 6.617 1.75 1.66 4.055 2.492 6.914 2.492 2.86 0 5.147-.831 6.898-2.492 1.763-1.661 2.643-3.867 2.643-6.617v-.539c0-2.76-.88-4.967-2.643-6.617-1.75-1.661-4.05-2.492-6.898-2.492-2.846 0-5.162.831-6.914 2.492-1.75 1.65-2.626 3.855-2.626 6.617v.539Zm4.321-.724c0-1.537.453-2.66 1.356-3.367.904-.707 2.191-1.061 3.864-1.061 1.674 0 2.944.354 3.847 1.061.916.708 1.374 1.83 1.374 3.367v.91c0 1.595-.453 2.733-1.356 3.418-.893.672-2.18 1.01-3.865 1.01-1.683 0-2.976-.336-3.88-1.01-.892-.685-1.338-1.825-1.338-3.418v-.91h-.002ZM100.636 10.915l5.321 17.745h4.818l3.779-12.886c.04-.138.236-.141.28-.003l4.075 12.889h4.817l5.355-17.745h-5.239l-2.644 9.884c-.112.45-.221.892-.322 1.33-.058.274-.155.712-.216.99-.014.06-.102.062-.116 0a44.358 44.358 0 0 0-.246-.993c-.112-.45-.236-.892-.373-1.33l-2.949-9.882h-5.017s-2.961 10.081-3.508 12.09c-.023.088-.147.086-.17 0l-3.066-12.089h-4.582.003ZM130.469 20.06c0 2.626.717 4.775 2.152 6.448 1.445 1.66 3.452 2.492 6.017 2.492 1.333 0 2.485-.24 3.455-.723.676-.34 1.542-1.102 2.019-1.546.195.815.456 1.934.456 1.934h4.2V2.853h-4.421v10.203c-.564-.786-1.31-1.393-2.236-1.818-.926-.438-2.051-.657-3.372-.657-2.485 0-4.485.836-5.999 2.508-1.513 1.66-2.271 3.804-2.271 6.43v.541Zm4.322.169-.016-.875c0-1.28.395-2.313 1.186-3.099.791-.796 2.017-1.195 3.678-1.195 1.163 0 2.153.27 2.965.808l.024.016a3.922 3.922 0 0 1 1.721 3.266v1.22a3.937 3.937 0 0 1-1.829 3.342c-.87.539-1.876.809-3.016.809-1.673 0-2.875-.4-3.61-1.195-.735-.797-1.101-1.83-1.101-3.1l-.002.003ZM153.785 28.663h4.22V10.918h-4.22v17.747Zm-.897-22.594c0 .763.26 1.392.779 1.885.532.483 1.276.724 2.237.724.961 0 1.684-.248 2.203-.741.531-.493.796-1.117.796-1.868 0-.751-.259-1.358-.78-1.853-.52-.493-1.265-.74-2.237-.74-.972 0-1.687.247-2.219.74-.519.493-.779 1.112-.779 1.853ZM163.122 28.663h4.22v-7.197c0-4.075 1.451-6.657 4.608-6.657 3.158 0 3.831 1.824 3.831 4.386v9.468H180V18.142c0-3.019-.621-5.035-1.865-6.044-1.243-1.021-2.829-1.532-4.762-1.532-1.275 0-2.456.235-3.542.708-.975.418-1.77 1.014-2.382 1.784-.051-.273-.329-2.138-.329-2.138h-4v17.745h.002ZM26.38 37H10.861C4.267 37 0 32.76 0 26.208V10.674C0 4.24 4.267 0 10.743 0H26.38c6.595 0 10.862 4.24 10.862 10.792v15.416C37.241 32.76 32.974 37 26.38 37Z"/><path fill="#fff" d="M23.926 25.208c-.697 0-1.317-.215-1.831-.635-.614-.496-1.102-1.235-1.12-2.103-.008-.439.455-.439.455-.439s.754-.008 1.12-.008c.366.008.472.532.49.664.141 1.177.788 1.69 1.285 1.925.298.14.224.579-.399.598v-.002ZM17.669 19.226c-.614-.075-1.525-.139-2.113-.288-.954-.242-.928-1.124-.886-1.412a5.897 5.897 0 0 1 .895-2.404c.588-.91 1.433-1.709 2.52-2.359 2.038-1.216 5.162-1.971 8.294-1.971.58 0 4.806 0 4.806.867 0 .482-.975.437-1.4.437-3.19 0-5.462.445-7.152 1.411-1.666.947-2.827 2.396-3.614 4.541-.082.187-.357 1.291-1.35 1.18v-.003ZM20.452 28.078c-1.583.033-3.075-.703-4.205-1.99-.957-1.088-1.533-2.185-1.64-3.593-.065-.92.33-1.238.866-1.183.371.037 1.525.094 2.185.234.495.103.825.386.907.966.437 3.097 2.334 4.316 3.464 4.578.198.047.32.178.314.414-.009.226-.135.535-1.889.572l-.002.002ZM15.942 30.827c-1.122.048-2.221-.185-2.535-.241-1.321-.242-2.428-.66-3.377-1.279-2.271-1.481-3.643-4.097-3.806-7.194-.042-.735-.133-2.14 1.57-2.033.701.039 1.815.387 2.6.62.974.28 1.445 1.055 1.445 1.82 0 4.367 3.678 7.157 5.424 7.157.4 0 .582.13.582.386 0 .192-.181.691-1.9.766l-.003-.002Z"/><path fill="#fff" d="M10.083 17.995c-.664-.123-1.312-.405-1.944-.567-1.952-.499-1.62-2.527-1.436-3.083C8.479 8.961 14.119 7.161 18.67 6.68c4.285-.452 8.77-.103 12.947 1.094.298.082 1.121.286.943.783-.177.498-.672.151-5.229.048a25.177 25.177 0 0 0-4.508.302c-2.584.405-5.24 1.245-7.375 3.017-1.03.858-1.935 1.952-2.54 3.245-.16.339-.284.678-.39 1.017-.11.359-.516 2.16-2.434 1.812l-.002-.002ZM21.01 19.034c.365-1.685 1.684-4.195 6.727-4.195.582 0 .776.192.776.385s-.271.386-.582.386c-3.064 0-4.038 1.868-4.745 3.783-.227.616-.747.708-1.397.598-.455-.083-.95-.138-.78-.957Z"/></svg>