<svg xmlns="http://www.w3.org/2000/svg" width="1020" height="300" fill="none"><path fill="#0062FF" d="M397.382 244.212V53.418h76.046c9.993 0 19.08 2.544 27.256 7.632 8.177 4.906 14.627 11.72 19.352 20.442 4.906 8.722 7.359 18.443 7.359 29.164 0 11.084-2.453 21.079-7.359 29.982-4.725 8.904-11.175 15.991-19.352 21.26-8.176 5.269-17.263 7.904-27.256 7.904h-52.332v74.41h-23.714Zm23.714-97.578h52.876c5.452 0 10.358-1.544 14.72-4.633 4.36-3.271 7.813-7.632 10.357-13.083 2.544-5.451 3.816-11.539 3.816-18.262 0-6.541-1.272-12.356-3.816-17.444-2.544-5.088-5.997-9.176-10.357-12.265-4.362-3.09-9.268-4.634-14.72-4.634h-52.876v70.321ZM615.217 246.937c-13.991 0-26.529-3.18-37.613-9.54-10.903-6.541-19.533-15.354-25.893-26.438-6.36-11.266-9.54-24.076-9.54-38.431 0-14.355 3.18-27.075 9.54-38.159 6.36-11.085 14.99-19.806 25.893-26.166 11.084-6.36 23.622-9.54 37.613-9.54 13.992 0 26.439 3.18 37.342 9.54 11.084 6.36 19.715 15.081 25.893 26.166 6.359 11.084 9.539 23.804 9.539 38.159s-3.18 27.165-9.539 38.431c-6.178 11.084-14.809 19.897-25.893 26.438-10.903 6.36-23.35 9.54-37.342 9.54Zm0-21.26c9.631 0 18.172-2.271 25.621-6.814 7.45-4.724 13.265-11.084 17.445-19.079 4.361-7.995 6.45-17.08 6.269-27.256.181-10.176-1.908-19.17-6.269-26.984-4.18-7.995-9.995-14.264-17.445-18.807-7.449-4.542-15.99-6.814-25.621-6.814-9.63 0-18.261 2.272-25.893 6.814-7.45 4.543-13.265 10.812-17.444 18.807-4.179 7.995-6.268 16.99-6.268 26.984 0 10.176 2.089 19.261 6.268 27.256 4.179 7.995 9.994 14.355 17.444 19.079 7.632 4.543 16.263 6.814 25.893 6.814ZM712.897 244.212V42.516h22.895v201.696h-22.895ZM826.119 246.937c-12.174 0-23.259-3.18-33.253-9.54-9.812-6.541-17.625-15.445-23.44-26.711-5.814-11.265-8.722-23.985-8.722-38.158 0-14.355 2.998-27.075 8.994-38.159 5.997-11.085 13.992-19.806 23.986-26.166 10.176-6.36 21.533-9.54 34.07-9.54 7.45 0 14.265 1.09 20.442 3.271 6.36 2.181 11.993 5.27 16.9 9.267a51.656 51.656 0 0 1 12.265 13.628c3.27 5.088 5.45 10.539 6.541 16.355l-5.996-2.727.272-36.795h22.895v142.55h-22.895v-34.615l5.724-2.999c-1.272 5.269-3.725 10.357-7.36 15.264-3.452 4.906-7.813 9.266-13.082 13.082-5.088 3.635-10.812 6.542-17.172 8.722-6.36 2.18-13.082 3.271-20.169 3.271Zm5.451-21.533c9.268 0 17.444-2.27 24.53-6.813 7.088-4.543 12.721-10.721 16.9-18.534 4.179-7.996 6.269-17.172 6.269-27.529 0-10.176-2.09-19.17-6.269-26.984-3.998-7.813-9.631-13.992-16.9-18.534-7.086-4.543-15.262-6.814-24.53-6.814-9.267 0-17.444 2.271-24.53 6.814-7.087 4.542-12.72 10.721-16.9 18.534-3.997 7.814-5.995 16.808-5.995 26.984 0 10.176 1.998 19.261 5.995 27.256 4.18 7.995 9.813 14.264 16.9 18.807 7.086 4.543 15.263 6.813 24.53 6.813ZM930.49 244.212v-142.55h22.896l.545 40.066-2.453-6.814c1.998-6.723 5.269-12.81 9.812-18.262 4.542-5.451 9.903-9.812 16.081-13.083 6.359-3.27 13.083-4.906 20.169-4.906 3.09 0 6 .273 8.72.818 2.91.364 5.27.909 7.09 1.635l-6.27 25.348a34.879 34.879 0 0 0-7.359-2.452c-2.544-.545-4.907-.818-7.087-.818-5.814 0-11.174 1.09-16.081 3.27-4.724 2.181-8.813 5.18-12.265 8.996-3.271 3.633-5.905 7.904-7.905 12.81-1.816 4.906-2.725 10.176-2.725 15.808v80.134H930.49Z"/><path fill="#0062FF" fill-rule="evenodd" d="M64.864 269.177c66.042 44.705 155.82 27.408 200.524-38.634 44.706-66.042 27.41-155.82-38.632-200.525C160.714-14.687 70.935 2.61 26.23 68.652c-44.705 66.041-27.408 155.82 38.634 200.525Zm19.153 1.18c60.413 30.907 137.047 1.894 171.17-64.8 34.122-66.696 12.81-145.82-47.603-176.727-60.411-30.907-137.047-1.895-171.169 64.8-34.122 66.695-12.81 145.818 47.602 176.727Z" clip-rule="evenodd"/><path fill="#0062FF" fill-rule="evenodd" d="M101.233 286.13c54.533 17.749 118.685-29.139 143.289-104.729 24.602-75.589.338-151.255-54.195-169.004C135.794-5.353 71.643 41.537 47.04 117.126c-24.603 75.589-.34 151.255 54.193 169.004Zm16.682-5.745c46.151 9.844 96.055-40.736 111.463-112.971 15.406-72.236-9.516-138.775-55.668-148.618C127.559 8.952 77.656 59.53 62.248 131.767c-15.407 72.235 9.516 138.774 55.667 148.618Z" clip-rule="evenodd"/><path fill="#0062FF" fill-rule="evenodd" d="M130.567 292.297c36.489 3.895 72.904-56.965 81.336-135.937 8.433-78.971-14.311-146.15-50.799-150.045C124.616 2.419 88.201 63.28 79.768 142.25c-8.432 78.971 14.311 146.15 50.799 150.046Zm17.075-24.037c26.406-.417 46.974-53.874 45.938-119.399-1.034-65.526-23.281-118.307-49.687-117.89-26.407.418-46.974 53.875-45.94 119.401 1.036 65.525 23.282 118.305 49.689 117.888Z" clip-rule="evenodd"/></svg>